<?xml version="1.0" encoding="utf-8"?>
<!-- Generator: Adobe Illustrator 15.1.0, SVG Export Plug-In  -->
<!DOCTYPE svg PUBLIC "-//W3C//DTD SVG 1.1//EN" "http://www.w3.org/Graphics/SVG/1.1/DTD/svg11.dtd" [
	<!ENTITY ns_flows "http://ns.adobe.com/Flows/1.0/">
]>
<svg version="1.1"
	 xmlns="http://www.w3.org/2000/svg" xmlns:xlink="http://www.w3.org/1999/xlink" xmlns:a="http://ns.adobe.com/AdobeSVGViewerExtensions/3.0/"
	 x="0px" y="0px" width="303px" height="72px" viewBox="6.216 4.729 303 72" enable-background="new 6.216 4.729 303 72"
	 xml:space="preserve">
<defs>
</defs>
<g>
	<defs>
		<rect id="SVGID_1_" width="317.308" height="49.729"/>
	</defs>
	<clipPath id="SVGID_2_">
		<use xlink:href="#SVGID_1_"  overflow="visible"/>
	</clipPath>
	<polygon clip-path="url(#SVGID_2_)" fill="#FFFFFF" points="223.548,12.224 227.518,5.474 262.994,5.474 258.814,12.224 
		247.033,12.224 228.115,44.895 219.722,44.895 238.499,12.224 	"/>
	<polygon clip-path="url(#SVGID_2_)" fill="#FFFFFF" points="179.992,12.224 183.964,5.474 219.446,5.474 215.264,12.224 
		203.486,12.224 184.568,44.895 176.175,44.895 194.937,12.224 	"/>
	<polygon clip-path="url(#SVGID_2_)" fill="#FFFFFF" points="163.725,18.524 158.921,26.387 143.28,26.387 136.437,37.531 
		157.791,37.533 153.497,44.895 123.094,44.895 147.533,5.474 175.635,5.474 171.677,12.224 151.646,12.222 147.644,18.523 	"/>
	<polygon clip-path="url(#SVGID_2_)" fill="#FFFFFF" points="20.015,12.389 36.18,39.051 45.135,25.929 37.043,25.929 
		33.132,19.197 58.787,19.197 42.038,44.895 29.425,44.882 29.425,44.895 6.485,5.475 67.589,5.475 61.955,13.794 53.036,13.794 
		54.012,12.387 	"/>
	<polygon clip-path="url(#SVGID_2_)" fill="#FFFFFF" points="78.778,5.474 87.237,5.474 61.222,44.895 52.493,44.895 	"/>
	<polygon clip-path="url(#SVGID_2_)" fill="#FFFFFF" points="97.047,5.474 104.837,5.474 109.625,33.635 127.38,5.474 
		135.645,5.474 110.859,44.895 103.014,44.895 97.997,16.753 79.277,44.895 70.85,44.895 	"/>
	<path clip-path="url(#SVGID_2_)" fill="#FFFFFF" d="M271.422,5.474l-22.888,39.421h8.611l11.19-19.797h21.381l-10.909,19.797h8.178
		l22.07-39.421H271.422z M271.936,18.504l3.696-6.598h21.625l-4.035,6.598H271.936z"/>
</g>
<path fill="#FFFFFF" d="M89.576,52.014h11.177c2.818,0,5.021,0.625,6.61,1.875c1.588,1.25,2.383,3.016,2.383,5.299
	c0,1.652-0.334,3.021-1.004,4.108c-0.669,1.087-1.716,1.968-3.142,2.641l4.961,9.596v0.245h-6.137l-4.838-8.405h-1.064
	 M97.129,62.965h3.623c1.088,0,1.907-0.287,2.457-0.859c0.549-0.573,0.824-1.372,0.824-2.397c0-1.025-0.278-1.83-0.833-2.414
	s-1.371-0.875-2.448-0.875h-3.623V62.965z"/>
<path fill="#FFFFFF" d="M126.703,71.338h-7.851l-1.371,4.439h-6.121l8.715-23.764h5.386l8.781,23.764h-6.153L126.703,71.338z
	 M120.224,66.915h5.109l-2.563-8.242L120.224,66.915z"/>
<path fill="#FFFFFF" d="M154.857,67.731c-0.076,1.654-0.521,3.115-1.338,4.382s-1.961,2.25-3.436,2.946
	c-1.475,0.697-3.158,1.045-5.052,1.045c-3.123,0-5.582-1.018-7.377-3.052s-2.693-4.907-2.693-8.618v-1.175
	c0-2.328,0.405-4.366,1.216-6.112c0.811-1.746,1.978-3.095,3.501-4.047s3.286-1.428,5.288-1.428c2.884,0,5.201,0.759,6.953,2.277
	s2.747,3.61,2.987,6.275h-5.713c-0.044-1.447-0.408-2.486-1.094-3.117c-0.686-0.631-1.729-0.947-3.134-0.947
	c-1.425,0-2.47,0.533-3.133,1.6s-1.012,2.769-1.044,5.108v1.681c0,2.535,0.318,4.347,0.955,5.435
	c0.637,1.088,1.733,1.632,3.289,1.632c1.316,0,2.323-0.31,3.02-0.93s1.066-1.605,1.11-2.954H154.857z"/>
<path fill="#FFFFFF" d="M172.305,65.691h-9.009v5.68h10.642v4.407h-16.37V52.014h16.402v4.423h-10.674v5.011h9.009V65.691z"/>
<path fill="#FFFFFF" d="M184.595,75.777V52.014h7.654c2.101,0,3.988,0.476,5.664,1.428s2.984,2.296,3.925,4.031
	c0.941,1.735,1.418,3.68,1.429,5.835v1.093c0,2.176-0.46,4.126-1.379,5.851c-0.92,1.725-2.215,3.074-3.885,4.048
	s-3.534,1.466-5.59,1.477H184.595z M190.324,56.437v14.934h1.991c1.644,0,2.905-0.585,3.787-1.754
	c0.881-1.17,1.321-2.908,1.321-5.215v-1.028c0-2.296-0.44-4.026-1.321-5.19c-0.882-1.164-2.165-1.747-3.853-1.747H190.324z"/>
<path fill="#FFFFFF" d="M219.36,71.338h-7.851l-1.371,4.439h-6.12l8.715-23.764h5.387l8.78,23.764h-6.153L219.36,71.338z
	 M212.88,66.915h5.108l-2.563-8.242L212.88,66.915z"/>
<path fill="#FFFFFF" d="M234.881,62.329l4.374-10.315h6.186l-7.654,15.228v8.536h-5.811v-8.536l-7.639-15.228h6.153L234.881,62.329z
	"/>
<polygon fill="#EB5C11" points="95.586,75.908 46.318,75.908 32.216,51.883 81.659,51.883 "/>
</svg>
