<?xml version="1.0" encoding="utf-8"?>
<!-- Generator: Adobe Illustrator 15.1.0, SVG Export Plug-In  -->
<!DOCTYPE svg PUBLIC "-//W3C//DTD SVG 1.1//EN" "http://www.w3.org/Graphics/SVG/1.1/DTD/svg11.dtd" [
	<!ENTITY ns_flows "http://ns.adobe.com/Flows/1.0/">
]>
<svg version="1.1"
	 xmlns="http://www.w3.org/2000/svg" xmlns:xlink="http://www.w3.org/1999/xlink" xmlns:a="http://ns.adobe.com/AdobeSVGViewerExtensions/3.0/"
	 x="0px" y="0px" width="336px" height="40px" viewBox="-0.471 -0.149 336 40" enable-background="new -0.471 -0.149 336 40"
	 xml:space="preserve">
<defs>
</defs>
<g>
	<polygon fill="#C1272D" points="164.967,1.851 313.507,1.851 331.775,36.851 138.988,36.851 	"/>
</g>
<g>
	<polygon points="153.08,36.851 20.569,36.851 2.303,1.851 170.769,1.851 	"/>
</g>
<g>
	<g>
		<path d="M333.136,35.929c-40.512,0-81.023,0-121.534,0c-57.548,0-115.096,0-172.644,0c-6.355,0-12.71,0-19.066,0
			c-0.79,0,1.454,1.353,1.016,0.491c-0.48-0.944-0.959-1.888-1.439-2.832c-2.148-4.226-4.297-8.451-6.445-12.677
			C9.605,14.188,6.187,7.466,2.77,0.743C2.337,1.495,1.906,2.248,1.474,3c40.637,0,81.273,0,121.91,0c57.535,0,115.07,0,172.605,0
			c6.225,0,12.448,0,18.673,0c0.293,0-1.534-1.417-0.963-0.3c0.542,1.061,1.084,2.121,1.626,3.181
			c2.068,4.045,4.137,8.091,6.205,12.137c3.438,6.723,6.874,13.445,10.312,20.168c0.881,1.724,3.469,0.205,2.59-1.514
			c-6.123-11.977-12.246-23.953-18.369-35.93C315.826,0.28,315.272,0,314.767,0c-40.637,0-81.273,0-121.91,0
			C135.322,0,77.788,0,20.252,0C13.993,0,7.733,0,1.474,0C0.287,0-0.328,1.261,0.179,2.257
			c6.089,11.976,12.178,23.952,18.267,35.929c0.236,0.463,0.791,0.743,1.295,0.743c40.512,0,81.023,0,121.535,0
			c57.547,0,115.095,0,172.644,0c6.405,0,12.811,0,19.217,0C335.071,38.929,335.071,35.929,333.136,35.929z"/>
	</g>
</g>
<g>
	<defs>
		<rect id="SVGID_1_" x="14.065" y="7.554" width="143.622" height="22.51"/>
	</defs>
	<clipPath id="SVGID_3_">
		<use xlink:href="#SVGID_1_"  overflow="visible"/>
	</clipPath>
	<polygon clip-path="url(#SVGID_3_)" fill="#FFFFFF" points="143.963,27.875 140.262,27.875 145.199,18.915 135.522,18.915 
		130.458,27.875 126.559,27.875 136.919,10.032 153.953,10.032 	"/>
	<polygon clip-path="url(#SVGID_3_)" fill="#FFFFFF" points="115.25,13.088 117.046,10.032 133.104,10.032 131.213,13.088 
		125.88,13.088 117.317,27.875 113.519,27.875 122.018,13.088 	"/>
	<polygon clip-path="url(#SVGID_3_)" fill="#FFFFFF" points="95.535,13.088 97.333,10.032 113.393,10.032 111.5,13.088 
		106.169,13.088 97.606,27.875 93.808,27.875 102.301,13.088 	"/>
	<polygon clip-path="url(#SVGID_3_)" fill="#FFFFFF" points="88.172,15.94 85.998,19.499 78.918,19.499 75.821,24.542 
		85.487,24.542 83.543,27.875 69.782,27.875 80.844,10.032 93.563,10.032 91.772,13.088 82.705,13.087 80.894,15.938 	"/>
	<polygon clip-path="url(#SVGID_3_)" fill="#FFFFFF" points="23.125,13.161 30.441,25.231 34.495,19.292 30.833,19.292 
		29.063,16.244 40.675,16.244 33.094,27.875 27.384,27.87 27.384,27.875 17.001,10.033 44.659,10.033 42.108,13.798 38.071,13.798 
		38.514,13.161 	"/>
	<polygon clip-path="url(#SVGID_3_)" fill="#FFFFFF" points="49.723,10.032 53.552,10.032 41.777,27.875 37.826,27.875 	"/>
	<polygon clip-path="url(#SVGID_3_)" fill="#FFFFFF" points="57.992,10.032 61.518,10.032 63.685,22.779 71.721,10.032 
		75.462,10.032 64.244,27.875 60.693,27.875 58.421,15.137 49.949,27.875 46.134,27.875 	"/>
	<polygon clip-path="url(#SVGID_3_)" fill="#1D1D1B" points="148.612,12.944 138.824,12.944 137.151,15.93 146.787,15.93 	"/>
</g>
<path fill="#FFFFFF" d="M188.121,22.371c-0.199,1.834-0.854,3.237-1.967,4.21s-2.594,1.459-4.443,1.459
	c-1.291,0-2.434-0.323-3.426-0.969c-0.993-0.646-1.76-1.561-2.303-2.744c-0.542-1.185-0.816-2.538-0.825-4.061v-2.26
	c0-1.547,0.271-2.918,0.813-4.114c0.542-1.196,1.321-2.119,2.338-2.769s2.187-0.975,3.511-0.975c1.865,0,3.338,0.502,4.418,1.507
	c1.081,1.004,1.709,2.396,1.884,4.173h-1.482c-0.367-2.958-1.974-4.437-4.819-4.437c-1.579,0-2.837,0.59-3.773,1.771
	c-0.937,1.181-1.405,2.813-1.405,4.895v2.13c0,2.01,0.456,3.615,1.369,4.811c0.913,1.197,2.146,1.795,3.701,1.795
	c1.539,0,2.699-0.368,3.48-1.105s1.264-1.844,1.447-3.319H188.121z"/>
<path fill="#FFFFFF" d="M204.601,27.8h-1.483v-8.348h-9.95V27.8h-1.471V10.388h1.471v7.821h9.95v-7.821h1.483V27.8z"/>
<path fill="#FFFFFF" d="M218.64,22.909h-7.904l-1.794,4.892h-1.543l6.59-17.413h1.399l6.589,17.413h-1.53L218.64,22.909z
	 M211.19,21.666h6.984l-3.492-9.484L211.19,21.666z"/>
<path fill="#FFFFFF" d="M226.019,26.556h8.599V27.8h-10.081V10.388h1.482V26.556z"/>
<path fill="#FFFFFF" d="M238.923,26.556h8.598V27.8H237.44V10.388h1.483V26.556z"/>
<path fill="#FFFFFF" d="M259.958,19.453h-8.144v7.104h9.363V27.8h-10.834V10.388h10.774v1.244h-9.304v6.577h8.144V19.453z"/>
<path fill="#FFFFFF" d="M277.24,27.8h-1.471l-10.01-14.901V27.8h-1.483V10.388h1.483l10.021,14.914V10.388h1.459V27.8z"/>
<path fill="#FFFFFF" d="M294.234,25.731c-0.511,0.726-1.31,1.292-2.398,1.698c-1.088,0.407-2.306,0.61-3.653,0.61
	c-1.363,0-2.575-0.327-3.636-0.98c-1.061-0.654-1.882-1.579-2.463-2.774c-0.582-1.196-0.878-2.567-0.886-4.114V17.97
	c0-2.416,0.61-4.323,1.83-5.722s2.858-2.099,4.915-2.099c1.794,0,3.237,0.456,4.329,1.369c1.093,0.913,1.742,2.17,1.949,3.773
	h-1.471c-0.215-1.279-0.735-2.249-1.561-2.909c-0.825-0.659-1.903-0.989-3.235-0.989c-1.626,0-2.914,0.579-3.862,1.735
	c-0.949,1.157-1.423,2.789-1.423,4.895v2.059c0,1.324,0.225,2.495,0.676,3.513c0.45,1.018,1.096,1.806,1.937,2.364
	c0.842,0.558,1.809,0.837,2.9,0.837c1.268,0,2.356-0.199,3.265-0.598c0.59-0.263,1.028-0.57,1.315-0.921V20.78h-4.676v-1.244h6.147
	V25.731z"/>
<path fill="#FFFFFF" d="M308.022,19.453h-8.144v7.104h9.363V27.8h-10.834V10.388h10.774v1.244h-9.304v6.577h8.144V19.453z"/>
</svg>
