<?xml version="1.0" encoding="utf-8"?>
<!-- Generator: Adobe Illustrator 15.1.0, SVG Export Plug-In  -->
<!DOCTYPE svg PUBLIC "-//W3C//DTD SVG 1.1//EN" "http://www.w3.org/Graphics/SVG/1.1/DTD/svg11.dtd" [
	<!ENTITY ns_flows "http://ns.adobe.com/Flows/1.0/">
]>
<svg version="1.1"
	 xmlns="http://www.w3.org/2000/svg" xmlns:xlink="http://www.w3.org/1999/xlink" xmlns:a="http://ns.adobe.com/AdobeSVGViewerExtensions/3.0/"
	 x="0px" y="0px" width="336px" height="40px" viewBox="-0.5 -0.5 336 40" enable-background="new -0.5 -0.5 336 40"
	 xml:space="preserve">
<defs>
</defs>
<polygon fill="#4F407A" points="164.966,1.851 313.506,1.851 331.775,36.852 138.987,36.852 "/>
<polygon points="153.08,36.852 20.568,36.852 2.303,1.851 170.769,1.851 "/>
<path d="M333.135,35.93c-40.512,0-81.022,0-121.534,0c-57.547,0-115.096,0-172.644,0c-6.355,0-12.71,0-19.066,0
	c-0.79,0,1.454,1.353,1.016,0.49c-0.48-0.943-0.959-1.888-1.439-2.832c-2.148-4.227-4.297-8.451-6.445-12.677
	C9.604,14.188,6.187,7.466,2.77,0.743C2.336,1.495,1.905,2.248,1.474,3c40.637,0,81.273,0,121.91,0c57.535,0,115.07,0,172.605,0
	c6.225,0,12.448,0,18.673,0c0.293,0-1.534-1.417-0.963-0.3c0.542,1.061,1.084,2.121,1.626,3.181
	c2.067,4.045,4.137,8.091,6.204,12.137c3.438,6.723,6.875,13.445,10.313,20.167c0.881,1.725,3.469,0.205,2.59-1.514
	c-6.123-11.977-12.246-23.953-18.369-35.93C315.826,0.28,315.271,0,314.767,0c-40.638,0-81.273,0-121.91,0
	C135.321,0,77.788,0,20.251,0C13.993,0,7.732,0,1.474,0C0.287,0-0.329,1.261,0.179,2.257c6.089,11.976,12.178,23.952,18.267,35.929
	c0.236,0.463,0.791,0.744,1.295,0.744c40.512,0,81.023,0,121.535,0c57.547,0,115.095,0,172.644,0c6.405,0,12.811,0,19.217,0
	C335.07,38.93,335.07,35.93,333.135,35.93z"/>
<g>
	<defs>
		<rect id="SVGID_8_" x="14.064" y="7.554" width="143.622" height="22.51"/>
	</defs>
	<clipPath id="SVGID_9_">
		<use xlink:href="#SVGID_8_"  overflow="visible"/>
	</clipPath>
	<polygon clip-path="url(#SVGID_9_)" fill="#FFFFFF" points="143.962,27.875 140.262,27.875 145.199,18.915 135.521,18.915 
		130.458,27.875 126.559,27.875 136.918,10.032 153.953,10.032 	"/>
</g>
<g>
	<defs>
		<rect id="SVGID_7_" x="14.064" y="7.554" width="143.622" height="22.51"/>
	</defs>
	<clipPath id="SVGID_10_">
		<use xlink:href="#SVGID_7_"  overflow="visible"/>
	</clipPath>
	<polygon clip-path="url(#SVGID_10_)" fill="#FFFFFF" points="115.25,13.088 117.045,10.032 133.104,10.032 131.212,13.088 
		125.879,13.088 117.316,27.875 113.519,27.875 122.018,13.088 	"/>
</g>
<g>
	<defs>
		<rect id="SVGID_6_" x="14.064" y="7.554" width="143.622" height="22.51"/>
	</defs>
	<clipPath id="SVGID_11_">
		<use xlink:href="#SVGID_6_"  overflow="visible"/>
	</clipPath>
	<polygon clip-path="url(#SVGID_11_)" fill="#FFFFFF" points="95.535,13.088 97.333,10.032 113.393,10.032 111.5,13.088 
		106.168,13.088 97.605,27.875 93.808,27.875 102.3,13.088 	"/>
</g>
<g>
	<defs>
		<rect id="SVGID_5_" x="14.064" y="7.554" width="143.622" height="22.51"/>
	</defs>
	<clipPath id="SVGID_12_">
		<use xlink:href="#SVGID_5_"  overflow="visible"/>
	</clipPath>
	<polygon clip-path="url(#SVGID_12_)" fill="#FFFFFF" points="88.171,15.94 85.998,19.499 78.917,19.499 75.82,24.542 
		85.486,24.542 83.542,27.875 69.782,27.875 80.844,10.032 93.563,10.032 91.771,13.088 82.705,13.087 80.894,15.938 	"/>
</g>
<g>
	<defs>
		<rect id="SVGID_4_" x="14.064" y="7.554" width="143.622" height="22.51"/>
	</defs>
	<clipPath id="SVGID_13_">
		<use xlink:href="#SVGID_4_"  overflow="visible"/>
	</clipPath>
	<polygon clip-path="url(#SVGID_13_)" fill="#FFFFFF" points="23.125,13.161 30.44,25.23 34.495,19.292 30.833,19.292 
		29.063,16.244 40.674,16.244 33.094,27.875 27.383,27.87 27.383,27.875 17,10.033 44.659,10.033 42.107,13.798 38.07,13.798 
		38.514,13.161 	"/>
</g>
<g>
	<defs>
		<rect id="SVGID_3_" x="14.064" y="7.554" width="143.622" height="22.51"/>
	</defs>
	<clipPath id="SVGID_14_">
		<use xlink:href="#SVGID_3_"  overflow="visible"/>
	</clipPath>
	<polygon clip-path="url(#SVGID_14_)" fill="#FFFFFF" points="49.723,10.032 53.551,10.032 41.776,27.875 37.826,27.875 	"/>
</g>
<g>
	<defs>
		<rect id="SVGID_2_" x="14.064" y="7.554" width="143.622" height="22.51"/>
	</defs>
	<clipPath id="SVGID_15_">
		<use xlink:href="#SVGID_2_"  overflow="visible"/>
	</clipPath>
	<polygon clip-path="url(#SVGID_15_)" fill="#FFFFFF" points="57.992,10.032 61.518,10.032 63.685,22.779 71.721,10.032 
		75.461,10.032 64.244,27.875 60.692,27.875 58.42,15.137 49.949,27.875 46.133,27.875 	"/>
</g>
<g>
	<defs>
		<rect id="SVGID_1_" x="14.064" y="7.554" width="143.622" height="22.51"/>
	</defs>
	<clipPath id="SVGID_16_">
		<use xlink:href="#SVGID_1_"  overflow="visible"/>
	</clipPath>
	<polygon clip-path="url(#SVGID_16_)" fill="#1D1D1B" points="148.611,12.944 138.824,12.944 137.15,15.93 146.787,15.93 	"/>
</g>
<path fill="#FFFFFF" d="M233.399,25.973c-0.501,0.711-1.283,1.266-2.35,1.664s-2.261,0.598-3.58,0.598
	c-1.336,0-2.524-0.32-3.563-0.961c-1.04-0.641-1.845-1.547-2.414-2.719c-0.571-1.172-0.86-2.516-0.867-4.031v-2.156
	c0-2.367,0.598-4.236,1.793-5.607s2.801-2.057,4.816-2.057c1.758,0,3.171,0.447,4.242,1.342c1.069,0.895,1.706,2.127,1.91,3.697
	h-1.441c-0.211-1.254-0.721-2.204-1.529-2.851s-1.866-0.97-3.17-0.97c-1.594,0-2.856,0.567-3.785,1.701
	c-0.931,1.134-1.395,2.732-1.395,4.797v2.017c0,1.298,0.22,2.446,0.662,3.443c0.44,0.996,1.073,1.769,1.898,2.316
	c0.823,0.547,1.771,0.82,2.842,0.82c1.242,0,2.309-0.195,3.199-0.586c0.577-0.258,1.008-0.559,1.289-0.902v-4.406h-4.582v-1.219
	h6.023V25.973z"/>
<path fill="#FFFFFF" d="M237.887,19.258l0.832-8.32h8.531v1.301h-7.324l-0.598,5.766c0.914-0.625,1.984-0.938,3.211-0.938
	c1.539,0,2.766,0.5,3.68,1.5s1.371,2.332,1.371,3.996c0,1.797-0.445,3.191-1.336,4.184s-2.145,1.488-3.762,1.488
	c-1.484,0-2.688-0.414-3.609-1.242s-1.449-1.988-1.582-3.48h1.348c0.133,1.164,0.527,2.045,1.184,2.643s1.543,0.896,2.66,0.896
	c1.219,0,2.139-0.387,2.76-1.16s0.932-1.875,0.932-3.305c0-1.25-0.348-2.27-1.043-3.059s-1.645-1.184-2.848-1.184
	c-0.664,0-1.242,0.084-1.734,0.252s-1.012,0.494-1.559,0.979L237.887,19.258z"/>
<path fill="#FFFFFF" d="M260.75,11.746L253.461,28h-1.465l7.242-15.867h-9.703v-1.195h11.215V11.746z"/>
</svg>
