<?xml version="1.0" encoding="utf-8"?>
<!-- Generator: Adobe Illustrator 15.1.0, SVG Export Plug-In  -->
<!DOCTYPE svg PUBLIC "-//W3C//DTD SVG 1.1//EN" "http://www.w3.org/Graphics/SVG/1.1/DTD/svg11.dtd" [
	<!ENTITY ns_flows "http://ns.adobe.com/Flows/1.0/">
]>
<svg version="1.1"
	 xmlns="http://www.w3.org/2000/svg" xmlns:xlink="http://www.w3.org/1999/xlink" xmlns:a="http://ns.adobe.com/AdobeSVGViewerExtensions/3.0/"
	 x="0px" y="0px" width="336px" height="40px" viewBox="-0.5 -0.5 336 40" enable-background="new -0.5 -0.5 336 40"
	 xml:space="preserve">
<defs>
</defs>
<polygon fill="#5C5C5C" points="164.966,1.851 313.506,1.851 331.775,36.852 138.987,36.852 "/>
<polygon points="153.08,36.852 20.568,36.852 2.303,1.851 170.769,1.851 "/>
<path d="M333.135,35.93c-40.512,0-81.022,0-121.534,0c-57.547,0-115.096,0-172.644,0c-6.355,0-12.71,0-19.066,0
	c-0.79,0,1.454,1.353,1.016,0.49c-0.48-0.943-0.959-1.888-1.439-2.832c-2.148-4.227-4.297-8.451-6.445-12.677
	C9.604,14.188,6.187,7.466,2.77,0.743C2.336,1.495,1.905,2.248,1.474,3c40.637,0,81.273,0,121.91,0c57.535,0,115.07,0,172.605,0
	c6.225,0,12.448,0,18.673,0c0.293,0-1.534-1.417-0.963-0.3c0.542,1.061,1.084,2.121,1.626,3.181
	c2.067,4.045,4.137,8.091,6.204,12.137c3.438,6.723,6.875,13.445,10.313,20.167c0.881,1.725,3.469,0.205,2.59-1.514
	c-6.123-11.977-12.246-23.953-18.369-35.93C315.826,0.28,315.271,0,314.767,0c-40.638,0-81.273,0-121.91,0
	C135.321,0,77.788,0,20.251,0C13.993,0,7.732,0,1.474,0C0.287,0-0.329,1.261,0.179,2.257c6.089,11.976,12.178,23.952,18.267,35.929
	c0.236,0.463,0.791,0.744,1.295,0.744c40.512,0,81.023,0,121.535,0c57.547,0,115.095,0,172.644,0c6.405,0,12.811,0,19.217,0
	C335.07,38.93,335.07,35.93,333.135,35.93z"/>
<g>
	<defs>
		<rect id="SVGID_8_" x="14.064" y="7.554" width="143.622" height="22.51"/>
	</defs>
	<clipPath id="SVGID_9_">
		<use xlink:href="#SVGID_8_"  overflow="visible"/>
	</clipPath>
	<polygon clip-path="url(#SVGID_9_)" fill="#FFFFFF" points="143.962,27.875 140.262,27.875 145.199,18.915 135.521,18.915 
		130.458,27.875 126.559,27.875 136.918,10.032 153.953,10.032 	"/>
</g>
<g>
	<defs>
		<rect id="SVGID_7_" x="14.064" y="7.554" width="143.622" height="22.51"/>
	</defs>
	<clipPath id="SVGID_10_">
		<use xlink:href="#SVGID_7_"  overflow="visible"/>
	</clipPath>
	<polygon clip-path="url(#SVGID_10_)" fill="#FFFFFF" points="115.25,13.088 117.045,10.032 133.104,10.032 131.212,13.088 
		125.879,13.088 117.316,27.875 113.519,27.875 122.018,13.088 	"/>
</g>
<g>
	<defs>
		<rect id="SVGID_6_" x="14.064" y="7.554" width="143.622" height="22.51"/>
	</defs>
	<clipPath id="SVGID_11_">
		<use xlink:href="#SVGID_6_"  overflow="visible"/>
	</clipPath>
	<polygon clip-path="url(#SVGID_11_)" fill="#FFFFFF" points="95.535,13.088 97.333,10.032 113.393,10.032 111.5,13.088 
		106.168,13.088 97.605,27.875 93.808,27.875 102.3,13.088 	"/>
</g>
<g>
	<defs>
		<rect id="SVGID_5_" x="14.064" y="7.554" width="143.622" height="22.51"/>
	</defs>
	<clipPath id="SVGID_12_">
		<use xlink:href="#SVGID_5_"  overflow="visible"/>
	</clipPath>
	<polygon clip-path="url(#SVGID_12_)" fill="#FFFFFF" points="88.171,15.94 85.998,19.499 78.917,19.499 75.82,24.542 
		85.486,24.542 83.542,27.875 69.782,27.875 80.844,10.032 93.563,10.032 91.771,13.088 82.705,13.087 80.894,15.938 	"/>
</g>
<g>
	<defs>
		<rect id="SVGID_4_" x="14.064" y="7.554" width="143.622" height="22.51"/>
	</defs>
	<clipPath id="SVGID_13_">
		<use xlink:href="#SVGID_4_"  overflow="visible"/>
	</clipPath>
	<polygon clip-path="url(#SVGID_13_)" fill="#FFFFFF" points="23.125,13.161 30.44,25.23 34.495,19.292 30.833,19.292 
		29.063,16.244 40.674,16.244 33.094,27.875 27.383,27.87 27.383,27.875 17,10.033 44.659,10.033 42.107,13.798 38.07,13.798 
		38.514,13.161 	"/>
</g>
<g>
	<defs>
		<rect id="SVGID_3_" x="14.064" y="7.554" width="143.622" height="22.51"/>
	</defs>
	<clipPath id="SVGID_14_">
		<use xlink:href="#SVGID_3_"  overflow="visible"/>
	</clipPath>
	<polygon clip-path="url(#SVGID_14_)" fill="#FFFFFF" points="49.723,10.032 53.551,10.032 41.776,27.875 37.826,27.875 	"/>
</g>
<g>
	<defs>
		<rect id="SVGID_2_" x="14.064" y="7.554" width="143.622" height="22.51"/>
	</defs>
	<clipPath id="SVGID_15_">
		<use xlink:href="#SVGID_2_"  overflow="visible"/>
	</clipPath>
	<polygon clip-path="url(#SVGID_15_)" fill="#FFFFFF" points="57.992,10.032 61.518,10.032 63.685,22.779 71.721,10.032 
		75.461,10.032 64.244,27.875 60.692,27.875 58.42,15.137 49.949,27.875 46.133,27.875 	"/>
</g>
<g>
	<defs>
		<rect id="SVGID_1_" x="14.064" y="7.554" width="143.622" height="22.51"/>
	</defs>
	<clipPath id="SVGID_16_">
		<use xlink:href="#SVGID_1_"  overflow="visible"/>
	</clipPath>
	<polygon clip-path="url(#SVGID_16_)" fill="#1D1D1B" points="148.611,12.944 138.824,12.944 137.15,15.93 146.787,15.93 	"/>
</g>
<path fill="#FFFFFF" d="M215.306,25.527c-0.5,0.711-1.283,1.266-2.35,1.664s-2.26,0.598-3.58,0.598c-1.336,0-2.523-0.32-3.563-0.961
	s-1.844-1.547-2.414-2.719s-0.859-2.516-0.867-4.031v-2.156c0-2.367,0.598-4.236,1.793-5.607s2.801-2.057,4.816-2.057
	c1.758,0,3.172,0.447,4.242,1.342s1.707,2.127,1.91,3.697h-1.441c-0.211-1.254-0.721-2.204-1.529-2.851s-1.865-0.97-3.17-0.97
	c-1.594,0-2.855,0.567-3.785,1.701s-1.395,2.732-1.395,4.797v2.017c0,1.298,0.221,2.446,0.662,3.443
	c0.441,0.996,1.074,1.769,1.898,2.316c0.824,0.547,1.771,0.82,2.842,0.82c1.242,0,2.309-0.195,3.199-0.586
	c0.578-0.258,1.008-0.559,1.289-0.902v-4.406h-4.582v-1.219h6.023V25.527z"/>
<path fill="#FFFFFF" d="M220.849,26.336h8.426v1.219h-9.879V10.492h1.453V26.336z"/>
<path fill="#FFFFFF" d="M243.888,19.949c0,1.57-0.271,2.949-0.814,4.137s-1.318,2.102-2.326,2.742s-2.172,0.961-3.492,0.961
	c-1.992,0-3.602-0.713-4.828-2.139s-1.84-3.35-1.84-5.771v-1.758c0-1.555,0.275-2.932,0.826-4.131s1.33-2.121,2.338-2.766
	s2.168-0.967,3.48-0.967s2.471,0.316,3.475,0.949s1.779,1.527,2.326,2.684s0.832,2.496,0.855,4.02V19.949z M242.447,18.098
	c0-2.055-0.465-3.664-1.395-4.828s-2.203-1.746-3.82-1.746c-1.586,0-2.85,0.584-3.791,1.752s-1.412,2.799-1.412,4.893v1.781
	c0,2.023,0.469,3.627,1.406,4.811s2.211,1.775,3.82,1.775c1.633,0,2.906-0.584,3.82-1.752s1.371-2.795,1.371-4.881V18.098z"/>
<path fill="#FFFFFF" d="M247.521,27.555V10.492h5.039c1.828,0,3.215,0.377,4.16,1.131c0.945,0.755,1.418,1.867,1.418,3.336
	c0,0.883-0.24,1.651-0.721,2.304c-0.48,0.652-1.139,1.12-1.975,1.401c0.992,0.219,1.791,0.707,2.396,1.464s0.908,1.632,0.908,2.624
	c0,1.507-0.486,2.685-1.459,3.53c-0.973,0.848-2.326,1.271-4.061,1.271H247.521z M248.962,18.145h3.938
	c1.203-0.023,2.135-0.307,2.795-0.851s0.99-1.336,0.99-2.377c0-1.096-0.342-1.904-1.025-2.424s-1.717-0.781-3.1-0.781h-3.598V18.145
	z M248.962,19.363v6.973h4.324c1.234,0,2.213-0.314,2.936-0.941c0.723-0.629,1.084-1.5,1.084-2.615c0-1.053-0.346-1.885-1.037-2.498
	c-0.691-0.612-1.646-0.918-2.865-0.918H248.962z"/>
<path fill="#FFFFFF" d="M271.439,22.762h-7.746l-1.758,4.793h-1.512l6.457-17.063h1.371l6.457,17.063h-1.5L271.439,22.762z
	 M264.138,21.543h6.844l-3.422-9.293L264.138,21.543z"/>
<path fill="#FFFFFF" d="M278.669,26.336h8.426v1.219h-9.879V10.492h1.453V26.336z"/>
</svg>
