<?xml version="1.0" encoding="utf-8"?>
<!-- Generator: Adobe Illustrator 15.1.0, SVG Export Plug-In  -->
<!DOCTYPE svg PUBLIC "-//W3C//DTD SVG 1.1//EN" "http://www.w3.org/Graphics/SVG/1.1/DTD/svg11.dtd" [
	<!ENTITY ns_flows "http://ns.adobe.com/Flows/1.0/">
]>
<svg version="1.1"
	 xmlns="http://www.w3.org/2000/svg" xmlns:xlink="http://www.w3.org/1999/xlink" xmlns:a="http://ns.adobe.com/AdobeSVGViewerExtensions/3.0/"
	 x="0px" y="0px" width="335px" height="39px" viewBox="-0.3 -0.033 335 39" enable-background="new -0.3 -0.033 335 39"
	 xml:space="preserve">
<defs>
</defs>
<g>
	<polygon fill="#F15A24" points="164.967,1.967 313.507,1.967 331.774,36.967 138.988,36.967 	"/>
</g>
<g>
	<polygon points="153.08,36.967 20.569,36.967 2.303,1.967 170.769,1.967 	"/>
</g>
<g>
	<g>
		<path d="M333.135,35.929c-40.512,0-81.022,0-121.534,0c-57.548,0-115.096,0-172.644,0c-6.355,0-12.711,0-19.066,0
			c-0.79,0,1.454,1.353,1.016,0.491c-0.48-0.944-0.959-1.888-1.439-2.832c-2.148-4.226-4.297-8.451-6.445-12.677
			C9.605,14.188,6.187,7.466,2.77,0.743C2.337,1.495,1.906,2.248,1.474,3C42.11,3,82.747,3,123.383,3c57.535,0,115.069,0,172.604,0
			c6.225,0,12.448,0,18.673,0c0.293,0-1.534-1.417-0.963-0.3c0.542,1.061,1.084,2.121,1.626,3.181
			c2.068,4.045,4.137,8.091,6.205,12.136c3.438,6.723,6.874,13.445,10.312,20.168c0.881,1.724,3.469,0.205,2.59-1.514
			c-6.123-11.977-12.246-23.953-18.369-35.929C315.825,0.28,315.271,0,314.766,0c-40.637,0-81.272,0-121.909,0
			C135.322,0,77.787,0,20.252,0C13.993,0,7.733,0,1.474,0C0.287,0-0.328,1.261,0.179,2.257C6.268,14.233,12.356,26.21,18.445,38.186
			c0.235,0.463,0.791,0.743,1.295,0.743c40.511,0,81.023,0,121.534,0c57.548,0,115.096,0,172.644,0c6.405,0,12.811,0,19.217,0
			C335.07,38.929,335.07,35.929,333.135,35.929z"/>
	</g>
</g>
<g>
	<defs>
		<rect id="SVGID_1_" x="14.065" y="7.554" width="143.622" height="22.51"/>
	</defs>
	<clipPath id="SVGID_2_">
		<use xlink:href="#SVGID_1_"  overflow="visible"/>
	</clipPath>
	<polygon clip-path="url(#SVGID_2_)" fill="#FFFFFF" points="143.963,27.874 140.262,27.874 145.199,18.914 135.522,18.914 
		130.458,27.874 126.559,27.874 136.918,10.031 153.953,10.031 	"/>
	<polygon clip-path="url(#SVGID_2_)" fill="#FFFFFF" points="115.25,13.087 117.046,10.031 133.103,10.031 131.213,13.087 
		125.879,13.087 117.316,27.874 113.518,27.874 122.018,13.087 	"/>
	<polygon clip-path="url(#SVGID_2_)" fill="#FFFFFF" points="95.535,13.087 97.332,10.031 113.393,10.031 111.5,13.087 
		106.169,13.087 97.606,27.874 93.808,27.874 102.3,13.087 	"/>
	<polygon clip-path="url(#SVGID_2_)" fill="#FFFFFF" points="88.171,15.939 85.998,19.498 78.918,19.498 75.82,24.541 
		85.486,24.542 83.543,27.874 69.781,27.874 80.844,10.031 93.563,10.031 91.771,13.087 82.705,13.086 80.894,15.938 	"/>
	<polygon clip-path="url(#SVGID_2_)" fill="#FFFFFF" points="23.125,13.16 30.441,25.229 34.495,19.29 30.833,19.29 29.063,16.244 
		40.675,16.244 33.094,27.874 27.384,27.869 27.384,27.874 17.001,10.032 44.659,10.032 42.108,13.797 38.071,13.797 38.513,13.16 	
		"/>
	<polygon clip-path="url(#SVGID_2_)" fill="#FFFFFF" points="49.723,10.031 53.552,10.031 41.776,27.874 37.826,27.874 	"/>
	<polygon clip-path="url(#SVGID_2_)" fill="#FFFFFF" points="57.992,10.031 61.518,10.031 63.685,22.778 71.721,10.031 
		75.462,10.031 64.244,27.874 60.693,27.874 58.421,15.136 49.949,27.874 46.134,27.874 	"/>
	<polygon clip-path="url(#SVGID_2_)" fill="#1D1D1B" points="148.612,12.942 138.824,12.942 137.151,15.93 146.787,15.93 	"/>
</g>
<path fill="#FFFFFF" d="M214.999,25.729c-0.51,0.726-1.31,1.292-2.397,1.698c-1.089,0.407-2.307,0.61-3.653,0.61
	c-1.363,0-2.575-0.327-3.636-0.98c-1.061-0.654-1.882-1.579-2.464-2.774c-0.582-1.196-0.877-2.567-0.885-4.114v-2.2
	c0-2.416,0.609-4.323,1.83-5.723c1.22-1.399,2.857-2.099,4.915-2.099c1.794,0,3.236,0.456,4.329,1.369
	c1.092,0.913,1.742,2.171,1.949,3.773h-1.471c-0.216-1.28-0.735-2.25-1.561-2.909c-0.825-0.66-1.904-0.99-3.235-0.99
	c-1.627,0-2.914,0.579-3.863,1.735c-0.948,1.157-1.423,2.789-1.423,4.896v2.059c0,1.324,0.226,2.495,0.676,3.513
	s1.097,1.806,1.938,2.364c0.841,0.558,1.808,0.837,2.9,0.837c1.268,0,2.355-0.199,3.265-0.598c0.59-0.263,1.028-0.57,1.315-0.921
	v-4.496h-4.676v-1.244h6.146V25.729z"/>
<path fill="#FFFFFF" d="M225.678,20.54h-5.059v7.259h-1.483V10.387h5.657c1.857,0,3.309,0.449,4.353,1.35
	c1.045,0.9,1.566,2.158,1.566,3.774c0,1.115-0.326,2.099-0.98,2.95c-0.653,0.853-1.53,1.441-2.631,1.769l4.354,7.414v0.155h-1.566
	L225.678,20.54z M220.62,19.296h4.509c1.235,0,2.228-0.352,2.978-1.054c0.749-0.703,1.124-1.613,1.124-2.731
	c0-1.229-0.391-2.184-1.172-2.862s-1.878-1.019-3.289-1.019h-4.149V19.296z"/>
<path fill="#FFFFFF" d="M234.719,27.799V10.387h4.867c1.427,0,2.707,0.324,3.839,0.975c1.132,0.649,2.016,1.58,2.649,2.792
	s0.95,2.592,0.95,4.138v1.603c0,1.555-0.314,2.935-0.944,4.138c-0.63,1.204-1.518,2.133-2.661,2.787
	c-1.145,0.653-2.458,0.98-3.94,0.98H234.719z M236.19,11.63v14.925h3.301c1.834,0,3.305-0.608,4.413-1.825s1.662-2.862,1.662-4.937
	v-1.532c0-2.003-0.546-3.606-1.638-4.812c-1.093-1.205-2.532-1.811-4.317-1.819H236.19z"/>
<path fill="#FFFFFF" d="M263.086,22.369c-0.199,1.834-0.855,3.237-1.968,4.21s-2.593,1.459-4.442,1.459
	c-1.292,0-2.434-0.323-3.427-0.969c-0.992-0.646-1.76-1.561-2.302-2.744c-0.542-1.185-0.817-2.538-0.825-4.061v-2.261
	c0-1.546,0.271-2.918,0.813-4.113c0.542-1.196,1.321-2.119,2.338-2.769s2.187-0.975,3.51-0.975c1.865,0,3.339,0.502,4.419,1.507
	c1.08,1.004,1.708,2.396,1.884,4.174h-1.483c-0.366-2.958-1.973-4.438-4.819-4.438c-1.578,0-2.836,0.591-3.773,1.771
	c-0.937,1.182-1.405,2.813-1.405,4.896v2.13c0,2.011,0.457,3.615,1.37,4.812c0.912,1.197,2.146,1.795,3.701,1.795
	c1.538,0,2.698-0.368,3.479-1.105s1.264-1.844,1.447-3.319H263.086z"/>
<path fill="#FFFFFF" d="M278.812,17.921h4.078v3.456h-4.078v4.676h-3.767v-4.676h-4.09v-3.456h4.09v-4.545h3.767V17.921z"/>
</svg>
