<?xml version="1.0" encoding="utf-8"?>
<!-- Generator: Adobe Illustrator 15.1.0, SVG Export Plug-In  -->
<!DOCTYPE svg PUBLIC "-//W3C//DTD SVG 1.1//EN" "http://www.w3.org/Graphics/SVG/1.1/DTD/svg11.dtd" [
	<!ENTITY ns_flows "http://ns.adobe.com/Flows/1.0/">
]>
<svg version="1.1"
	 xmlns="http://www.w3.org/2000/svg" xmlns:xlink="http://www.w3.org/1999/xlink" xmlns:a="http://ns.adobe.com/AdobeSVGViewerExtensions/3.0/"
	 x="0px" y="0px" width="336px" height="39px" viewBox="-0.471 -0.005 336 39" enable-background="new -0.471 -0.005 336 39"
	 xml:space="preserve">
<defs>
</defs>
<g>
	<polygon fill="#F7931E" points="164.967,1.995 313.507,1.995 331.775,36.995 138.988,36.995 	"/>
</g>
<g>
	<polygon points="153.08,36.995 20.569,36.995 2.303,1.995 170.769,1.995 	"/>
</g>
<g>
	<g>
		<path d="M333.136,35.931c-40.512,0-81.023,0-121.534,0c-57.548,0-115.096,0-172.644,0c-6.355,0-12.71,0-19.066,0
			c-0.79,0,1.454,1.353,1.016,0.491c-0.48-0.944-0.959-1.889-1.439-2.832c-2.148-4.226-4.297-8.452-6.445-12.678
			C9.605,14.189,6.187,7.466,2.77,0.743C2.337,1.495,1.906,2.248,1.474,3c40.637,0,81.273,0,121.91,0c57.535,0,115.07,0,172.605,0
			c6.225,0,12.448,0,18.673,0c0.293,0-1.534-1.417-0.963-0.3c0.542,1.061,1.084,2.121,1.626,3.181
			c2.068,4.046,4.137,8.091,6.205,12.137c3.438,6.723,6.874,13.446,10.312,20.169c0.881,1.724,3.469,0.205,2.59-1.514
			c-6.123-11.978-12.246-23.954-18.369-35.931C315.826,0.28,315.272,0,314.767,0c-40.637,0-81.273,0-121.91,0
			C135.322,0,77.788,0,20.252,0C13.993,0,7.733,0,1.474,0C0.287,0-0.328,1.261,0.179,2.257
			c6.089,11.977,12.178,23.954,18.267,35.931c0.235,0.463,0.791,0.743,1.295,0.743c40.512,0,81.023,0,121.535,0
			c57.547,0,115.095,0,172.644,0c6.405,0,12.811,0,19.217,0C335.071,38.931,335.071,35.931,333.136,35.931z"/>
	</g>
</g>
<g>
	<defs>
		<rect id="SVGID_2_" x="14.065" y="7.555" width="143.622" height="22.509"/>
	</defs>
	<clipPath id="SVGID_3_">
		<use xlink:href="#SVGID_2_"  overflow="visible"/>
	</clipPath>
	<polygon clip-path="url(#SVGID_3_)" fill="#FFFFFF" points="143.963,27.875 140.262,27.875 145.199,18.915 135.522,18.915 
		130.458,27.875 126.559,27.875 136.919,10.032 153.953,10.032 	"/>
	<polygon clip-path="url(#SVGID_3_)" fill="#FFFFFF" points="115.25,13.089 117.046,10.032 133.104,10.032 131.213,13.089 
		125.88,13.089 117.317,27.875 113.519,27.875 122.018,13.089 	"/>
	<polygon clip-path="url(#SVGID_3_)" fill="#FFFFFF" points="95.535,13.089 97.333,10.032 113.393,10.032 111.5,13.089 
		106.169,13.089 97.606,27.875 93.808,27.875 102.301,13.089 	"/>
	<polygon clip-path="url(#SVGID_3_)" fill="#FFFFFF" points="88.172,15.94 85.998,19.499 78.918,19.499 75.821,24.542 
		85.487,24.543 83.543,27.875 69.782,27.875 80.844,10.032 93.563,10.032 91.772,13.089 82.705,13.088 80.894,15.938 	"/>
	<polygon clip-path="url(#SVGID_3_)" fill="#FFFFFF" points="23.125,13.162 30.441,25.231 34.495,19.291 30.833,19.291 
		29.063,16.244 40.675,16.244 33.094,27.875 27.384,27.87 27.384,27.875 17.001,10.034 44.659,10.034 42.108,13.798 38.071,13.798 
		38.514,13.162 	"/>
	<polygon clip-path="url(#SVGID_3_)" fill="#FFFFFF" points="49.723,10.032 53.552,10.032 41.777,27.875 37.826,27.875 	"/>
	<polygon clip-path="url(#SVGID_3_)" fill="#FFFFFF" points="57.992,10.032 61.518,10.032 63.685,22.779 71.721,10.032 
		75.462,10.032 64.244,27.875 60.693,27.875 58.421,15.137 49.949,27.875 46.134,27.875 	"/>
	<polygon clip-path="url(#SVGID_3_)" fill="#1D1D1B" points="148.612,12.944 138.824,12.944 137.151,15.931 146.787,15.931 	"/>
</g>
<path fill="#FFFFFF" d="M224.518,25.73c-0.51,0.726-1.31,1.292-2.397,1.698c-1.089,0.407-2.307,0.61-3.653,0.61
	c-1.363,0-2.575-0.327-3.636-0.98c-1.061-0.654-1.882-1.579-2.464-2.774c-0.582-1.196-0.877-2.567-0.885-4.114v-2.2
	c0-2.416,0.609-4.323,1.83-5.723c1.22-1.399,2.857-2.099,4.915-2.099c1.794,0,3.236,0.456,4.329,1.369
	c1.092,0.913,1.742,2.171,1.949,3.773h-1.471c-0.216-1.28-0.735-2.25-1.561-2.909c-0.825-0.66-1.904-0.99-3.235-0.99
	c-1.627,0-2.914,0.579-3.863,1.735c-0.948,1.157-1.423,2.789-1.423,4.896v2.059c0,1.324,0.226,2.495,0.676,3.513
	s1.097,1.806,1.938,2.364c0.841,0.558,1.808,0.837,2.9,0.837c1.268,0,2.355-0.199,3.265-0.598c0.59-0.263,1.028-0.57,1.315-0.921
	V20.78h-4.676v-1.244h6.146V25.73z"/>
<path fill="#FFFFFF" d="M235.198,20.541h-5.059V27.8h-1.483V10.388h5.657c1.857,0,3.309,0.449,4.353,1.35
	c1.045,0.9,1.566,2.158,1.566,3.774c0,1.115-0.326,2.099-0.98,2.95c-0.653,0.853-1.53,1.441-2.631,1.769l4.354,7.414V27.8h-1.566
	L235.198,20.541z M230.139,19.297h4.509c1.235,0,2.228-0.352,2.978-1.054c0.749-0.703,1.124-1.613,1.124-2.731
	c0-1.229-0.391-2.184-1.172-2.862s-1.878-1.019-3.289-1.019h-4.149V19.297z"/>
<path fill="#FFFFFF" d="M244.239,27.8V10.388h4.867c1.427,0,2.707,0.324,3.839,0.975c1.132,0.649,2.016,1.58,2.649,2.792
	s0.95,2.592,0.95,4.138v1.603c0,1.555-0.314,2.935-0.944,4.138c-0.63,1.204-1.518,2.133-2.661,2.787
	c-1.145,0.653-2.458,0.98-3.94,0.98H244.239z M245.709,11.631v14.925h3.301c1.834,0,3.305-0.608,4.413-1.825
	s1.662-2.862,1.662-4.937v-1.532c0-2.003-0.546-3.606-1.638-4.812c-1.093-1.205-2.532-1.811-4.317-1.819H245.709z"/>
<path fill="#FFFFFF" d="M272.606,22.37c-0.199,1.834-0.855,3.237-1.968,4.21s-2.593,1.459-4.442,1.459
	c-1.292,0-2.434-0.323-3.427-0.969c-0.992-0.646-1.76-1.561-2.302-2.744c-0.542-1.185-0.817-2.538-0.825-4.061v-2.261
	c0-1.546,0.271-2.918,0.813-4.113c0.542-1.196,1.321-2.119,2.338-2.769s2.187-0.975,3.51-0.975c1.865,0,3.339,0.502,4.419,1.507
	c1.08,1.004,1.708,2.396,1.884,4.174h-1.483c-0.366-2.958-1.973-4.438-4.819-4.438c-1.578,0-2.836,0.591-3.773,1.771
	c-0.937,1.182-1.405,2.813-1.405,4.896v2.13c0,2.011,0.457,3.615,1.37,4.812c0.912,1.197,2.146,1.795,3.701,1.795
	c1.538,0,2.698-0.368,3.479-1.105s1.264-1.844,1.447-3.319H272.606z"/>
</svg>
