<?xml version="1.0" encoding="utf-8"?>
<!-- Generator: Adobe Illustrator 15.1.0, SVG Export Plug-In  -->
<!DOCTYPE svg PUBLIC "-//W3C//DTD SVG 1.1//EN" "http://www.w3.org/Graphics/SVG/1.1/DTD/svg11.dtd" [
	<!ENTITY ns_flows "http://ns.adobe.com/Flows/1.0/">
]>
<svg version="1.1"
	 xmlns="http://www.w3.org/2000/svg" xmlns:xlink="http://www.w3.org/1999/xlink" xmlns:a="http://ns.adobe.com/AdobeSVGViewerExtensions/3.0/"
	 x="0px" y="0px" width="336px" height="40px" viewBox="-0.471 -0.437 336 40" enable-background="new -0.471 -0.437 336 40"
	 xml:space="preserve">
<defs>
</defs>
<g>
	<polygon fill="#7AC943" points="164.967,1.563 313.507,1.563 331.775,37.563 138.988,37.563 	"/>
</g>
<g>
	<polygon points="153.08,37.563 20.569,37.563 2.303,1.563 170.769,1.563 	"/>
</g>
<g>
	<g>
		<path d="M333.136,35.93c-40.512,0-81.023,0-121.534,0c-57.548,0-115.096,0-172.644,0c-6.355,0-12.71,0-19.066,0
			c-0.79,0,1.454,1.353,1.016,0.491c-0.48-0.944-0.959-1.888-1.439-2.832c-2.148-4.226-4.297-8.451-6.445-12.678
			C9.605,14.188,6.187,7.466,2.77,0.743C2.337,1.495,1.906,2.248,1.474,3c40.637,0,81.273,0,121.91,0c57.535,0,115.07,0,172.605,0
			c6.225,0,12.448,0,18.673,0c0.293,0-1.534-1.417-0.963-0.3c0.542,1.061,1.084,2.121,1.626,3.181
			c2.068,4.045,4.137,8.091,6.205,12.137c3.438,6.723,6.874,13.446,10.312,20.168c0.881,1.724,3.469,0.205,2.59-1.514
			c-6.123-11.977-12.246-23.953-18.369-35.93C315.826,0.28,315.272,0,314.767,0c-40.637,0-81.273,0-121.91,0
			C135.322,0,77.788,0,20.252,0C13.993,0,7.733,0,1.474,0C0.287,0-0.328,1.261,0.179,2.257c6.089,11.977,12.178,23.953,18.267,35.93
			c0.236,0.463,0.791,0.743,1.295,0.743c40.512,0,81.023,0,121.535,0c57.547,0,115.095,0,172.644,0c6.405,0,12.811,0,19.217,0
			C335.071,38.93,335.071,35.93,333.136,35.93z"/>
	</g>
</g>
<g>
	<defs>
		<rect id="SVGID_1_" x="14.065" y="7.554" width="143.622" height="22.509"/>
	</defs>
	<clipPath id="SVGID_2_">
		<use xlink:href="#SVGID_1_"  overflow="visible"/>
	</clipPath>
	<polygon clip-path="url(#SVGID_2_)" fill="#FFFFFF" points="143.963,27.874 140.262,27.874 145.199,18.915 135.522,18.915 
		130.458,27.874 126.559,27.874 136.919,10.031 153.953,10.031 	"/>
	<polygon clip-path="url(#SVGID_2_)" fill="#FFFFFF" points="115.25,13.088 117.046,10.031 133.104,10.031 131.213,13.088 
		125.88,13.088 117.317,27.874 113.519,27.874 122.018,13.088 	"/>
	<polygon clip-path="url(#SVGID_2_)" fill="#FFFFFF" points="95.535,13.088 97.333,10.031 113.393,10.031 111.5,13.088 
		106.169,13.088 97.606,27.874 93.808,27.874 102.301,13.088 	"/>
	<polygon clip-path="url(#SVGID_2_)" fill="#FFFFFF" points="88.172,15.94 85.998,19.498 78.918,19.498 75.821,24.542 
		85.487,24.542 83.543,27.874 69.782,27.874 80.844,10.031 93.563,10.031 91.772,13.088 82.705,13.087 80.894,15.938 	"/>
	<polygon clip-path="url(#SVGID_2_)" fill="#FFFFFF" points="23.125,13.161 30.441,25.23 34.495,19.291 30.833,19.291 
		29.063,16.244 40.675,16.244 33.094,27.874 27.384,27.87 27.384,27.874 17.001,10.033 44.659,10.033 42.108,13.798 38.071,13.798 
		38.514,13.161 	"/>
	<polygon clip-path="url(#SVGID_2_)" fill="#FFFFFF" points="49.723,10.031 53.552,10.031 41.777,27.874 37.826,27.874 	"/>
	<polygon clip-path="url(#SVGID_2_)" fill="#FFFFFF" points="57.992,10.031 61.518,10.031 63.685,22.778 71.721,10.031 
		75.462,10.031 64.244,27.874 60.693,27.874 58.421,15.137 49.949,27.874 46.134,27.874 	"/>
	<polygon clip-path="url(#SVGID_2_)" fill="#1D1D1B" points="148.612,12.943 138.824,12.943 137.151,15.93 146.787,15.93 	"/>
</g>
<path fill="#FFFFFF" d="M201.701,10.387h1.482v12.235c0,1.65-0.477,2.966-1.429,3.946c-0.953,0.98-2.23,1.471-3.833,1.471
	c-1.69,0-2.99-0.442-3.898-1.327c-0.909-0.885-1.363-2.121-1.363-3.707h1.471c0,1.26,0.331,2.206,0.992,2.84
	c0.662,0.634,1.595,0.951,2.799,0.951c1.108,0,2.011-0.367,2.709-1.101c0.697-0.733,1.054-1.73,1.07-2.99V10.387z"/>
<path fill="#FFFFFF" d="M219.484,10.387v11.888c-0.008,1.172-0.268,2.192-0.777,3.062c-0.511,0.869-1.23,1.536-2.159,2.003
	c-0.929,0.466-1.995,0.699-3.198,0.699c-1.834,0-3.303-0.5-4.407-1.501c-1.104-1-1.677-2.386-1.716-4.155V10.387h1.459v11.78
	c0,1.468,0.418,2.605,1.255,3.415c0.838,0.809,1.974,1.214,3.409,1.214c1.435,0,2.568-0.407,3.402-1.221
	c0.833-0.813,1.249-1.944,1.249-3.396V10.387H219.484z"/>
<path fill="#FFFFFF" d="M236.549,27.8h-1.471l-10.01-14.901V27.8h-1.483V10.387h1.483l10.021,14.914V10.387h1.459V27.8z"/>
<path fill="#FFFFFF" d="M242.768,27.8h-1.471V10.387h1.471V27.8z"/>
<path fill="#FFFFFF" d="M260.36,20.039c0,1.603-0.277,3.01-0.831,4.221c-0.555,1.212-1.346,2.146-2.374,2.799
	c-1.028,0.654-2.217,0.98-3.563,0.98c-2.033,0-3.676-0.728-4.928-2.183s-1.877-3.418-1.877-5.89v-1.794
	c0-1.586,0.28-2.992,0.843-4.216c0.562-1.224,1.357-2.165,2.386-2.822s2.212-0.986,3.552-0.986s2.521,0.323,3.546,0.968
	c1.024,0.646,1.815,1.559,2.374,2.739c0.558,1.18,0.849,2.547,0.873,4.102V20.039z M258.889,18.149c0-2.097-0.475-3.739-1.424-4.927
	c-0.948-1.188-2.248-1.782-3.898-1.782c-1.618,0-2.908,0.596-3.869,1.788c-0.96,1.192-1.44,2.856-1.44,4.993v1.818
	c0,2.065,0.479,3.702,1.435,4.91c0.957,1.207,2.257,1.812,3.899,1.812c1.666,0,2.966-0.596,3.898-1.788
	c0.933-1.191,1.399-2.853,1.399-4.981V18.149z"/>
<path fill="#FFFFFF" d="M270.573,20.541h-5.059V27.8h-1.483V10.387h5.657c1.857,0,3.309,0.45,4.353,1.35
	c1.045,0.9,1.566,2.158,1.566,3.774c0,1.115-0.326,2.099-0.98,2.951c-0.653,0.852-1.53,1.441-2.631,1.768l4.354,7.415V27.8h-1.566
	L270.573,20.541z M265.514,19.297h4.509c1.235,0,2.228-0.351,2.978-1.054c0.749-0.703,1.124-1.613,1.124-2.731
	c0-1.229-0.391-2.184-1.172-2.862s-1.878-1.018-3.289-1.018h-4.149V19.297z"/>
<path fill="#FFFFFF" d="M289.468,23.519c0-0.965-0.339-1.728-1.017-2.29s-1.918-1.096-3.72-1.603s-3.117-1.059-3.946-1.657
	c-1.18-0.845-1.77-1.953-1.77-3.324c0-1.332,0.548-2.414,1.645-3.247c1.096-0.833,2.497-1.25,4.203-1.25
	c1.156,0,2.19,0.223,3.104,0.669c0.913,0.447,1.62,1.068,2.123,1.866c0.502,0.797,0.753,1.686,0.753,2.667h-1.482
	c0-1.191-0.407-2.149-1.221-2.873c-0.813-0.724-1.905-1.085-3.276-1.085c-1.331,0-2.392,0.297-3.181,0.892
	c-0.79,0.595-1.185,1.372-1.185,2.33c0,0.887,0.354,1.609,1.064,2.168s1.846,1.052,3.408,1.479c1.563,0.427,2.747,0.87,3.552,1.328
	c0.806,0.458,1.411,1.007,1.818,1.645c0.406,0.638,0.609,1.392,0.609,2.261c0,1.371-0.548,2.472-1.645,3.301
	c-1.096,0.829-2.541,1.243-4.335,1.243c-1.228,0-2.354-0.219-3.378-0.657s-1.802-1.053-2.332-1.842s-0.796-1.694-0.796-2.715h1.472
	c0,1.228,0.458,2.196,1.375,2.906c0.917,0.709,2.137,1.064,3.659,1.064c1.355,0,2.443-0.3,3.265-0.897
	S289.468,24.508,289.468,23.519z"/>
</svg>
