<?xml version="1.0" encoding="utf-8"?>
<!-- Generator: Adobe Illustrator 15.1.0, SVG Export Plug-In  -->
<!DOCTYPE svg PUBLIC "-//W3C//DTD SVG 1.1//EN" "http://www.w3.org/Graphics/SVG/1.1/DTD/svg11.dtd" [
	<!ENTITY ns_flows "http://ns.adobe.com/Flows/1.0/">
]>
<svg version="1.1"
	 xmlns="http://www.w3.org/2000/svg" xmlns:xlink="http://www.w3.org/1999/xlink" xmlns:a="http://ns.adobe.com/AdobeSVGViewerExtensions/3.0/"
	 x="0px" y="0px" width="336px" height="40px" viewBox="-0.471 -0.293 336 40" enable-background="new -0.471 -0.293 336 40"
	 xml:space="preserve">
<defs>
</defs>
<g>
	<polygon fill="#3FA9F5" points="164.967,1.707 313.507,1.707 331.775,36.707 138.988,36.707 	"/>
</g>
<g>
	<polygon points="153.08,36.707 20.569,36.707 2.303,1.707 170.769,1.707 	"/>
</g>
<g>
	<g>
		<path d="M333.136,35.93c-40.512,0-81.023,0-121.534,0c-57.548,0-115.096,0-172.644,0c-6.355,0-12.71,0-19.066,0
			c-0.79,0,1.454,1.353,1.016,0.491c-0.48-0.944-0.959-1.888-1.439-2.832c-2.148-4.226-4.297-8.451-6.445-12.678
			C9.605,14.188,6.187,7.466,2.77,0.743C2.337,1.495,1.906,2.248,1.474,3c40.637,0,81.273,0,121.91,0c57.535,0,115.07,0,172.605,0
			c6.225,0,12.448,0,18.673,0c0.293,0-1.534-1.417-0.963-0.3c0.542,1.061,1.084,2.121,1.626,3.181
			c2.068,4.045,4.137,8.091,6.205,12.137c3.438,6.723,6.874,13.446,10.312,20.168c0.881,1.724,3.469,0.205,2.59-1.514
			c-6.123-11.977-12.246-23.953-18.369-35.93C315.826,0.28,315.272,0,314.767,0c-40.637,0-81.273,0-121.91,0
			C135.322,0,77.788,0,20.252,0C13.993,0,7.733,0,1.474,0C0.287,0-0.328,1.261,0.179,2.257c6.089,11.977,12.178,23.953,18.267,35.93
			c0.236,0.463,0.791,0.743,1.295,0.743c40.512,0,81.023,0,121.535,0c57.547,0,115.095,0,172.644,0c6.405,0,12.811,0,19.217,0
			C335.071,38.93,335.071,35.93,333.136,35.93z"/>
	</g>
</g>
<g>
	<defs>
		<rect id="SVGID_1_" x="14.065" y="7.554" width="143.622" height="22.509"/>
	</defs>
	<clipPath id="SVGID_2_">
		<use xlink:href="#SVGID_1_"  overflow="visible"/>
	</clipPath>
	<polygon clip-path="url(#SVGID_2_)" fill="#FFFFFF" points="143.963,27.874 140.262,27.874 145.199,18.915 135.522,18.915 
		130.458,27.874 126.559,27.874 136.919,10.032 153.953,10.032 	"/>
	<polygon clip-path="url(#SVGID_2_)" fill="#FFFFFF" points="115.25,13.087 117.046,10.032 133.104,10.032 131.213,13.087 
		125.88,13.087 117.317,27.874 113.519,27.874 122.018,13.087 	"/>
	<polygon clip-path="url(#SVGID_2_)" fill="#FFFFFF" points="95.535,13.087 97.333,10.032 113.393,10.032 111.5,13.087 
		106.169,13.087 97.606,27.874 93.808,27.874 102.301,13.087 	"/>
	<polygon clip-path="url(#SVGID_2_)" fill="#FFFFFF" points="88.172,15.939 85.998,19.498 78.918,19.498 75.821,24.541 
		85.487,24.543 83.543,27.874 69.782,27.874 80.844,10.032 93.563,10.032 91.772,13.087 82.705,13.086 80.894,15.938 	"/>
	<polygon clip-path="url(#SVGID_2_)" fill="#FFFFFF" points="23.125,13.161 30.441,25.23 34.495,19.291 30.833,19.291 
		29.063,16.244 40.675,16.244 33.094,27.874 27.384,27.869 27.384,27.874 17.001,10.033 44.659,10.033 42.108,13.797 38.071,13.797 
		38.514,13.161 	"/>
	<polygon clip-path="url(#SVGID_2_)" fill="#FFFFFF" points="49.723,10.032 53.552,10.032 41.777,27.874 37.826,27.874 	"/>
	<polygon clip-path="url(#SVGID_2_)" fill="#FFFFFF" points="57.992,10.032 61.518,10.032 63.685,22.778 71.721,10.032 
		75.462,10.032 64.244,27.874 60.693,27.874 58.421,15.136 49.949,27.874 46.134,27.874 	"/>
	<polygon clip-path="url(#SVGID_2_)" fill="#1D1D1B" points="148.612,12.943 138.824,12.943 137.151,15.93 146.787,15.93 	"/>
</g>
<path fill="#FFFFFF" d="M192.796,23.519c0-0.965-0.339-1.729-1.017-2.29c-0.678-0.563-1.917-1.097-3.719-1.603
	s-3.117-1.059-3.946-1.657c-1.181-0.845-1.771-1.953-1.771-3.324c0-1.332,0.548-2.414,1.645-3.247
	c1.096-0.833,2.497-1.25,4.204-1.25c1.155,0,2.19,0.223,3.103,0.669c0.913,0.447,1.621,1.068,2.123,1.866s0.754,1.686,0.754,2.667
	h-1.483c0-1.191-0.406-2.149-1.22-2.873s-1.905-1.085-3.276-1.085c-1.332,0-2.393,0.297-3.182,0.892
	c-0.789,0.595-1.184,1.372-1.184,2.33c0,0.887,0.354,1.609,1.064,2.168c0.709,0.559,1.846,1.052,3.408,1.479
	c1.563,0.427,2.746,0.87,3.552,1.328c0.805,0.458,1.411,1.007,1.817,1.645c0.407,0.638,0.61,1.391,0.61,2.26
	c0,1.371-0.549,2.472-1.645,3.301c-1.097,0.829-2.541,1.244-4.335,1.244c-1.229,0-2.354-0.22-3.379-0.658s-1.802-1.053-2.332-1.842
	s-0.795-1.693-0.795-2.715h1.471c0,1.229,0.459,2.197,1.375,2.906c0.917,0.71,2.137,1.064,3.66,1.064
	c1.355,0,2.443-0.299,3.265-0.896C192.386,25.3,192.796,24.507,192.796,23.519z"/>
<path fill="#FFFFFF" d="M209.444,10.387v11.888c-0.008,1.172-0.268,2.192-0.777,3.062c-0.511,0.869-1.23,1.537-2.159,2.003
	c-0.929,0.467-1.995,0.7-3.198,0.7c-1.834,0-3.303-0.501-4.407-1.501c-1.104-1.001-1.677-2.386-1.716-4.156V10.387h1.459v11.78
	c0,1.467,0.418,2.605,1.255,3.414c0.838,0.81,1.974,1.214,3.409,1.214c1.435,0,2.568-0.406,3.402-1.22
	c0.833-0.813,1.249-1.945,1.249-3.396V10.387H209.444z"/>
<path fill="#FFFFFF" d="M215.016,20.708V27.8h-1.471V10.387h5.932c1.81,0,3.239,0.463,4.287,1.388
	c1.049,0.925,1.573,2.196,1.573,3.815c0,1.634-0.505,2.896-1.513,3.785c-1.009,0.889-2.47,1.334-4.384,1.334H215.016z
	 M215.016,19.464h4.461c1.427,0,2.516-0.339,3.265-1.018c0.75-0.679,1.124-1.625,1.124-2.839c0-1.206-0.372-2.166-1.118-2.88
	c-0.745-0.714-1.804-1.08-3.175-1.096h-4.557V19.464z"/>
<path fill="#FFFFFF" d="M238.241,19.452h-8.144v7.104h9.363V27.8h-10.834V10.387h10.774v1.244h-9.304v6.577h8.144V19.452z"/>
<path fill="#FFFFFF" d="M249.064,20.54h-5.059v7.26h-1.483V10.387h5.657c1.857,0,3.309,0.45,4.353,1.35
	c1.045,0.9,1.566,2.158,1.566,3.774c0,1.115-0.326,2.099-0.98,2.951c-0.653,0.852-1.53,1.441-2.631,1.768l4.354,7.414V27.8h-1.566
	L249.064,20.54z M244.005,19.296h4.509c1.235,0,2.228-0.351,2.978-1.054c0.749-0.703,1.124-1.613,1.124-2.731
	c0-1.229-0.391-2.184-1.172-2.862s-1.878-1.018-3.289-1.018h-4.149V19.296z"/>
<path fill="#FFFFFF" d="M270.435,22.37c-0.199,1.834-0.855,3.237-1.968,4.21s-2.593,1.459-4.442,1.459
	c-1.292,0-2.434-0.323-3.427-0.969c-0.992-0.646-1.76-1.561-2.302-2.745c-0.542-1.184-0.817-2.537-0.825-4.06v-2.26
	c0-1.547,0.271-2.918,0.813-4.114c0.542-1.196,1.321-2.119,2.338-2.769s2.187-0.975,3.51-0.975c1.865,0,3.339,0.502,4.419,1.507
	c1.08,1.004,1.708,2.396,1.884,4.173h-1.483c-0.366-2.958-1.973-4.437-4.819-4.437c-1.578,0-2.836,0.59-3.773,1.771
	c-0.937,1.181-1.405,2.813-1.405,4.895v2.13c0,2.011,0.457,3.614,1.37,4.812c0.912,1.196,2.146,1.795,3.701,1.795
	c1.538,0,2.698-0.368,3.479-1.106c0.781-0.737,1.264-1.843,1.447-3.318H270.435z"/>
<path fill="#FFFFFF" d="M286.005,10.387v11.888c-0.008,1.172-0.267,2.192-0.777,3.062c-0.51,0.869-1.229,1.537-2.158,2.003
	c-0.929,0.467-1.995,0.7-3.199,0.7c-1.834,0-3.303-0.501-4.407-1.501c-1.104-1.001-1.676-2.386-1.716-4.156V10.387h1.459v11.78
	c0,1.467,0.419,2.605,1.256,3.414c0.837,0.81,1.974,1.214,3.408,1.214c1.436,0,2.569-0.406,3.402-1.22s1.25-1.945,1.25-3.396V10.387
	H286.005z"/>
<path fill="#FFFFFF" d="M291.579,20.708V27.8h-1.471V10.387h5.932c1.81,0,3.238,0.463,4.287,1.388
	c1.048,0.925,1.572,2.196,1.572,3.815c0,1.634-0.504,2.896-1.513,3.785c-1.009,0.889-2.47,1.334-4.383,1.334H291.579z
	 M291.579,19.464h4.461c1.427,0,2.515-0.339,3.265-1.018c0.749-0.679,1.124-1.625,1.124-2.839c0-1.206-0.373-2.166-1.118-2.88
	c-0.746-0.714-1.804-1.08-3.175-1.096h-4.557V19.464z"/>
</svg>
